<?xml version="1.0" standalone="no"?>
<!DOCTYPE svg PUBLIC "-//W3C//DTD SVG 20010904//EN"
 "http://www.w3.org/TR/2001/REC-SVG-20010904/DTD/svg10.dtd">
<svg version="1.0" xmlns="http://www.w3.org/2000/svg"
 width="512.000000pt" height="512.000000pt" viewBox="0 0 512.000000 512.000000"
 preserveAspectRatio="xMidYMid meet">
<metadata>
Created by potrace 1.14, written by Peter Selinger 2001-2017
</metadata>
<g transform="translate(0.000000,512.000000) scale(0.100000,-0.100000)"
fill="#000000" stroke="none">
<path d="M2440 4499 c-79 -13 -168 -44 -273 -96 -51 -25 -128 -62 -172 -83
-44 -21 -145 -69 -225 -108 -80 -38 -194 -93 -255 -122 -60 -29 -156 -74 -211
-101 -56 -27 -157 -75 -225 -107 -590 -281 -816 -390 -889 -428 -135 -69 -190
-141 -186 -240 5 -101 59 -159 216 -236 58 -28 107 -53 110 -55 3 -2 5 -216 5
-474 l1 -469 -47 -28 c-124 -78 -167 -238 -99 -372 18 -34 86 -104 125 -125
17 -10 9 -38 -112 -425 l-129 -415 364 -3 c201 -1 367 0 370 2 2 3 -33 123
-78 268 -98 314 -115 370 -146 467 -27 84 -30 111 -10 111 24 0 101 76 125
125 34 69 39 155 11 228 -23 60 -79 125 -131 153 -16 8 -30 20 -30 27 -1 6 -2
195 -3 418 -1 403 -1 407 19 399 11 -4 81 -37 156 -73 l136 -66 0 -625 0 -626
26 -37 c14 -21 56 -70 93 -109 62 -64 103 -102 213 -197 68 -59 262 -180 386
-241 205 -101 435 -172 662 -203 176 -24 503 -23 655 2 13 2 40 6 60 9 131 20
432 108 486 142 12 8 22 12 22 10 0 -2 51 21 113 53 97 50 171 95 277 168 44
31 143 114 203 171 93 87 208 226 199 240 -1 1 -2 278 -2 616 l0 614 73 35
c756 366 769 374 793 516 14 84 -50 179 -158 233 -90 45 -923 455 -1093 538
-88 43 -331 162 -540 265 -395 194 -470 228 -520 239 -16 3 -41 9 -55 12 -43
10 -252 12 -310 3z"/>
</g>
</svg>
